<?xml version="1.0" encoding="utf-8"?>
<!-- Generator: Adobe Illustrator 16.0.0, SVG Export Plug-In . SVG Version: 6.00 Build 0)  -->
<!DOCTYPE svg PUBLIC "-//W3C//DTD SVG 1.1//EN" "http://www.w3.org/Graphics/SVG/1.1/DTD/svg11.dtd">
<svg version="1.1" id="Layer_1" xmlns="http://www.w3.org/2000/svg" xmlns:xlink="http://www.w3.org/1999/xlink" x="0px" y="0px"
	 width="255px" height="80px" viewBox="0 0 255 80" enable-background="new 0 0 255 80" xml:space="preserve">
<g>
	<g>
		<path fill="#F8A41F" d="M254.438,55.41c-0.259-0.954-0.874-1.75-1.731-2.241l-2.096-1.201l0.17-0.295
			c0.319-0.558,0.133-1.271-0.419-1.6l-15.847-9.483V26.14c0-6.21-5.052-11.262-11.262-11.262h-2.52
			c-6.21,0-11.262,5.052-11.262,11.262v2.52c0,0.652,0.528,1.181,1.182,1.181c0.652,0,1.181-0.529,1.181-1.181v-2.52
			c0-4.907,3.992-8.899,8.899-8.899h2.52c4.907,0,8.899,3.992,8.899,8.899v13.939h-1.417V28.66c0-2.041-1.661-3.701-3.702-3.701
			h-10.079c-2.042,0-3.702,1.66-3.702,3.701v11.419h-1.418v-6.458c0-0.652-0.528-1.182-1.181-1.182
			c-0.653,0-1.182,0.529-1.182,1.182v6.969l-15.846,9.483c-0.553,0.329-0.739,1.042-0.419,1.6l0.169,0.295l-2.095,1.2
			c-1.749,1.002-2.376,3.3-1.372,5.053c0.684,1.191,1.934,1.859,3.219,1.859c0.623,0,1.254-0.156,1.834-0.488l2.094-1.2l0.137,0.239
			c0.313,0.548,1.024,0.752,1.581,0.456l8.811-4.691l-3.141,21.979c-0.101,0.701,0.462,1.348,1.17,1.348h32.761
			c0.708,0,1.27-0.646,1.17-1.348l-1.385-9.691c-0.093-0.647-0.692-1.095-1.337-1.002c-0.646,0.092-1.095,0.689-1.002,1.336
			l1.191,8.344h-30.036l4.701-32.919h20.633l2.587,18.114c0.093,0.646,0.691,1.092,1.337,1.002c0.646-0.093,1.095-0.691,1.002-1.336
			l-0.833-5.826l8.811,4.691c0.557,0.296,1.268,0.092,1.581-0.456l0.138-0.239l2.093,1.2c1.751,1.003,4.052,0.376,5.053-1.371
			C254.569,57.361,254.698,56.364,254.438,55.41z M193.788,57.541c-0.642,0.368-1.461,0.145-1.828-0.495
			c-0.366-0.642-0.145-1.461,0.496-1.827l2.095-1.2l1.331,2.323L193.788,57.541z M207.999,51.498l-9.201,4.899
			c-0.024-0.102-2.764-4.874-2.855-4.957l13.192-7.895L207.999,51.498z M228.373,40.079h-12.758v-3.714
			c1.77,1.468,4.011,2.296,6.379,2.296c2.365,0,4.608-0.83,6.379-2.297V40.079z M228.373,32.864L228.373,32.864
			c-1.422,2.151-3.805,3.434-6.379,3.434c-2.576,0-4.958-1.284-6.379-3.436V28.66c0-0.738,0.602-1.339,1.34-1.339h10.079
			c0.738,0,1.339,0.601,1.339,1.339V32.864L228.373,32.864z M245.189,56.397l-9.156-4.876c-0.013-0.008-0.028-0.014-0.042-0.021
			l-1.137-7.955l13.191,7.894C247.955,51.522,245.215,56.296,245.189,56.397z M252.028,57.046c-0.367,0.64-1.186,0.863-1.827,0.495
			l-2.095-1.199l1.331-2.323l2.095,1.2C252.173,55.585,252.395,56.404,252.028,57.046z"/>
	</g>
</g>
<g>
	<g>
		<path fill="#F8A41F" d="M225.774,50.159h-2.599v-2.599c0-0.653-0.529-1.182-1.182-1.182s-1.182,0.528-1.182,1.182v2.599h-2.599
			c-0.652,0-1.181,0.528-1.181,1.181c0,0.653,0.528,1.183,1.181,1.183h2.599v10.158c0,0.652,0.529,1.182,1.182,1.182
			s1.182-0.529,1.182-1.182V52.522h2.599c0.652,0,1.181-0.529,1.181-1.183C226.955,50.688,226.427,50.159,225.774,50.159z"/>
	</g>
</g>
<g>
	<g>
		<path fill="#F8A41F" d="M221.994,8.578c-11.072,0-20.081,9.009-20.081,20.082c0,4.387,1.388,8.554,4.017,12.051
			c0.231,0.309,0.587,0.473,0.944,0.473c0.248,0,0.497-0.077,0.709-0.237c0.521-0.393,0.627-1.133,0.235-1.654
			c-2.318-3.085-3.544-6.762-3.544-10.632c0-9.771,7.949-17.719,17.72-17.719s17.719,7.949,17.719,17.719
			c0,3.87-1.224,7.546-3.541,10.631c-0.393,0.521-0.287,1.262,0.234,1.654c0.522,0.392,1.263,0.286,1.654-0.235
			c2.627-3.497,4.016-7.664,4.016-12.05C242.076,17.586,233.067,8.578,221.994,8.578z"/>
	</g>
</g>
<g>
	<g>
		<path fill="#F8A41F" d="M221.994,2.278c-0.652,0-1.181,0.528-1.181,1.181v2.52c0,0.652,0.528,1.181,1.181,1.181
			s1.182-0.529,1.182-1.181v-2.52C223.176,2.806,222.646,2.278,221.994,2.278z"/>
	</g>
</g>
<g>
	<g>
		<path fill="#F8A41F" d="M211.048,8.596l-1.26-2.182c-0.327-0.565-1.05-0.759-1.615-0.433c-0.564,0.327-0.758,1.049-0.432,1.614
			l1.26,2.182c0.348,0.601,1.164,0.772,1.724,0.36C211.204,9.785,211.344,9.109,211.048,8.596z"/>
	</g>
</g>
<g>
	<g>
		<path fill="#F8A41F" d="M201.852,16.926l-2.183-1.259c-0.565-0.327-1.287-0.133-1.613,0.432s-0.134,1.287,0.432,1.613l2.184,1.26
			c0.603,0.348,1.394,0.086,1.672-0.55C202.582,17.879,202.365,17.223,201.852,16.926z"/>
	</g>
</g>
<g>
	<g>
		<path fill="#F8A41F" d="M198.054,28.738h-2.521c-0.652,0-1.181,0.529-1.181,1.181c0,0.653,0.528,1.182,1.181,1.182h2.521
			c0.652,0,1.182-0.529,1.182-1.182C199.235,29.267,198.707,28.738,198.054,28.738z"/>
	</g>
</g>
<g>
	<g>
		<path fill="#F8A41F" d="M202.284,41.3c-0.326-0.566-1.049-0.759-1.613-0.433l-2.184,1.26c-0.513,0.297-0.729,0.953-0.491,1.497
			c0.278,0.635,1.07,0.896,1.673,0.549l2.183-1.26C202.417,42.588,202.609,41.864,202.284,41.3z"/>
	</g>
</g>
<g>
	<g>
		<path fill="#F8A41F" d="M245.501,42.127l-2.184-1.26c-0.564-0.326-1.287-0.133-1.613,0.433c-0.325,0.564-0.133,1.287,0.433,1.613
			l2.183,1.26c0.603,0.348,1.395,0.086,1.673-0.549C246.23,43.08,246.014,42.424,245.501,42.127z"/>
	</g>
</g>
<g>
	<g>
		<path fill="#F8A41F" d="M248.455,28.738h-2.521c-0.652,0-1.182,0.529-1.182,1.181c0,0.653,0.529,1.182,1.182,1.182h2.521
			c0.652,0,1.181-0.529,1.181-1.182C249.636,29.267,249.107,28.738,248.455,28.738z"/>
	</g>
</g>
<g>
	<g>
		<path fill="#F8A41F" d="M245.933,16.099c-0.326-0.565-1.049-0.758-1.613-0.432l-2.183,1.26c-0.439,0.254-0.672,0.777-0.564,1.273
			c0.117,0.538,0.605,0.932,1.156,0.932c0.2,0,0.403-0.051,0.589-0.159l2.184-1.26C246.066,17.386,246.258,16.664,245.933,16.099z"
			/>
	</g>
</g>
<g>
	<g>
		<path fill="#F8A41F" d="M235.815,5.981c-0.565-0.326-1.288-0.132-1.614,0.433l-1.26,2.182c-0.326,0.565-0.133,1.288,0.433,1.614
			c0.558,0.322,1.292,0.125,1.613-0.433l1.26-2.182C236.574,7.03,236.38,6.308,235.815,5.981z"/>
	</g>
</g>
<g>
	<path stroke="#000000" stroke-width="2" stroke-miterlimit="10" d="M1.847,76.084v-6.695c3.033-0.174,5.514-1.213,7.442-3.12
		c1.928-1.905,2.893-4.874,2.893-8.905V19.209h7.15v38.35c0,2.904-0.434,5.482-1.3,7.735c-0.868,2.253-2.08,4.17-3.64,5.753
		c-1.56,1.581-3.413,2.795-5.558,3.64S4.36,75.997,1.847,76.084z"/>
	<path stroke="#000000" stroke-width="2" stroke-miterlimit="10" d="M30.707,66.334V19.209h30.94v6.435h-23.79v13.78h21.19v6.564
		h-21.19V59.77h24.7v6.564H30.707z"/>
	<path stroke="#000000" stroke-width="2" stroke-miterlimit="10" d="M97.786,21.809l-2.535,5.785c-1.777-0.65-3.542-1.17-5.297-1.56
		c-1.755-0.39-3.435-0.585-5.038-0.585c-2.73,0-4.908,0.563-6.533,1.69c-1.625,1.127-2.438,2.557-2.438,4.29
		c0,1.474,0.585,2.655,1.755,3.542c1.17,0.889,2.622,1.69,4.355,2.405c1.733,0.715,3.618,1.43,5.655,2.145
		c2.036,0.715,3.921,1.637,5.655,2.763c1.733,1.127,3.185,2.546,4.355,4.257c1.17,1.713,1.755,3.912,1.755,6.598
		c0,2.08-0.38,3.955-1.138,5.623c-0.759,1.668-1.885,3.109-3.38,4.322c-1.495,1.214-3.359,2.145-5.59,2.795
		c-2.232,0.65-4.842,0.975-7.833,0.975c-1.907,0-3.629-0.13-5.167-0.39c-1.539-0.26-2.925-0.595-4.16-1.008
		c-1.235-0.411-2.319-0.854-3.25-1.332c-0.933-0.477-1.723-0.91-2.373-1.3l3.12-6.176c1.732,0.998,3.661,1.799,5.785,2.406
		c2.123,0.606,4.051,0.909,5.785,0.909c0.866,0,1.939-0.107,3.217-0.325c1.278-0.216,2.503-0.595,3.673-1.137
		s2.177-1.268,3.022-2.178c0.845-0.91,1.268-2.059,1.268-3.445c0-1.256-0.336-2.328-1.008-3.217
		c-0.672-0.889-1.56-1.668-2.665-2.341c-1.105-0.671-2.362-1.277-3.77-1.819c-1.409-0.542-2.85-1.105-4.322-1.69
		c-1.474-0.585-2.915-1.202-4.323-1.853c-1.409-0.65-2.665-1.44-3.77-2.373c-1.105-0.931-1.994-2.015-2.665-3.25
		c-0.672-1.235-1.008-2.719-1.008-4.453c0-1.603,0.325-3.185,0.975-4.745s1.625-2.946,2.925-4.16c1.3-1.213,2.914-2.188,4.843-2.925
		c1.928-0.736,4.17-1.105,6.728-1.105c1.56,0,3.087,0.13,4.583,0.39c1.495,0.26,2.849,0.553,4.063,0.877
		c1.212,0.325,2.242,0.64,3.087,0.943C96.973,21.463,97.526,21.679,97.786,21.809z"/>
	<path stroke="#000000" stroke-width="2" stroke-miterlimit="10" d="M124.955,66.854c-2.514,0-4.854-0.412-7.021-1.234
		s-4.063-1.982-5.688-3.478s-2.903-3.293-3.834-5.396c-0.933-2.102-1.397-4.452-1.397-7.053V19.209h7.15v30.29
		c0,1.517,0.271,2.915,0.813,4.192c0.541,1.279,1.3,2.405,2.275,3.38c0.975,0.976,2.112,1.733,3.412,2.275s2.729,0.813,4.29,0.813
		c1.517,0,2.936-0.271,4.258-0.813c1.321-0.542,2.47-1.3,3.444-2.275c0.976-0.975,1.744-2.101,2.308-3.38
		c0.563-1.277,0.845-2.676,0.845-4.192v-30.29h7.15v30.484c0,2.601-0.466,4.951-1.397,7.053c-0.933,2.103-2.21,3.9-3.835,5.396
		s-3.532,2.655-5.72,3.478C129.818,66.441,127.468,66.854,124.955,66.854z"/>
	<path stroke="#000000" stroke-width="2" stroke-miterlimit="10" d="M180.984,21.809l-2.535,5.785
		c-1.777-0.65-3.542-1.17-5.297-1.56c-1.755-0.39-3.436-0.585-5.038-0.585c-2.729,0-4.907,0.563-6.532,1.69
		c-1.625,1.127-2.438,2.557-2.438,4.29c0,1.474,0.585,2.655,1.755,3.542c1.17,0.889,2.621,1.69,4.355,2.405
		c1.732,0.715,3.617,1.43,5.654,2.145s3.922,1.637,5.655,2.763c1.732,1.127,3.186,2.546,4.355,4.257
		c1.17,1.713,1.755,3.912,1.755,6.598c0,2.08-0.38,3.955-1.138,5.623c-0.759,1.668-1.885,3.109-3.38,4.322
		c-1.495,1.214-3.358,2.145-5.59,2.795c-2.232,0.65-4.843,0.975-7.833,0.975c-1.907,0-3.63-0.13-5.167-0.39
		c-1.539-0.26-2.925-0.595-4.16-1.008c-1.235-0.411-2.318-0.854-3.25-1.332c-0.933-0.477-1.723-0.91-2.373-1.3l3.12-6.176
		c1.733,0.998,3.662,1.799,5.785,2.406c2.123,0.606,4.052,0.909,5.785,0.909c0.866,0,1.938-0.107,3.218-0.325
		c1.277-0.216,2.502-0.595,3.672-1.137s2.178-1.268,3.022-2.178c0.846-0.91,1.268-2.059,1.268-3.445
		c0-1.256-0.336-2.328-1.007-3.217c-0.673-0.889-1.561-1.668-2.665-2.341c-1.105-0.671-2.362-1.277-3.771-1.819
		s-2.85-1.105-4.322-1.69c-1.474-0.585-2.915-1.202-4.322-1.853c-1.409-0.65-2.665-1.44-3.771-2.373
		c-1.104-0.931-1.993-2.015-2.665-3.25s-1.007-2.719-1.007-4.453c0-1.603,0.324-3.185,0.975-4.745s1.625-2.946,2.925-4.16
		c1.3-1.213,2.914-2.188,4.843-2.925c1.928-0.736,4.17-1.105,6.728-1.105c1.56,0,3.087,0.13,4.582,0.39
		c1.495,0.26,2.85,0.553,4.063,0.877c1.213,0.325,2.243,0.64,3.088,0.943C180.172,21.463,180.725,21.679,180.984,21.809z"/>
</g>
</svg>
