<?xml version="1.0" encoding="utf-8"?>
<!-- Generator: Adobe Illustrator 16.0.0, SVG Export Plug-In . SVG Version: 6.00 Build 0)  -->
<!DOCTYPE svg PUBLIC "-//W3C//DTD SVG 1.1//EN" "http://www.w3.org/Graphics/SVG/1.1/DTD/svg11.dtd">
<svg version="1.1" id="Layer_1" xmlns="http://www.w3.org/2000/svg" xmlns:xlink="http://www.w3.org/1999/xlink" x="0px" y="0px"
	 width="320px" height="80px" viewBox="0 0 320 80" enable-background="new 0 0 320 80" xml:space="preserve">
<g>
	<g>
		<path fill="#F8A41F" d="M319.869,55.133c-0.259-0.955-0.874-1.75-1.731-2.242l-2.096-1.201l0.17-0.295
			c0.319-0.557,0.133-1.27-0.419-1.6l-15.847-9.482V25.862c0-6.21-5.052-11.262-11.262-11.262h-2.52
			c-6.21,0-11.262,5.052-11.262,11.262v2.52c0,0.652,0.528,1.181,1.182,1.181c0.652,0,1.181-0.529,1.181-1.181v-2.52
			c0-4.907,3.992-8.899,8.899-8.899h2.52c4.907,0,8.899,3.992,8.899,8.899v13.939h-1.417V28.382c0-2.041-1.661-3.701-3.702-3.701
			h-10.079c-2.042,0-3.702,1.66-3.702,3.701v11.419h-1.418v-6.458c0-0.652-0.528-1.182-1.181-1.182
			c-0.653,0-1.182,0.529-1.182,1.182v6.969l-15.846,9.482c-0.553,0.33-0.739,1.043-0.419,1.6l0.169,0.295l-2.095,1.201
			c-1.749,1.002-2.376,3.299-1.372,5.053c0.684,1.191,1.934,1.859,3.219,1.859c0.623,0,1.254-0.156,1.834-0.488l2.094-1.201
			l0.137,0.24c0.313,0.547,1.024,0.752,1.581,0.455l8.811-4.691l-3.141,21.979c-0.101,0.701,0.462,1.348,1.17,1.348h32.761
			c0.708,0,1.27-0.646,1.17-1.348l-1.385-9.691c-0.093-0.646-0.692-1.094-1.337-1.002c-0.646,0.092-1.095,0.689-1.002,1.336
			l1.191,8.344h-30.036l4.701-32.918h20.633l2.587,18.113c0.093,0.646,0.691,1.092,1.337,1.002c0.646-0.092,1.095-0.691,1.002-1.336
			l-0.833-5.826l8.811,4.691c0.557,0.297,1.268,0.092,1.581-0.455l0.138-0.24l2.093,1.201c1.751,1.002,4.052,0.375,5.053-1.371
			C320,57.084,320.129,56.086,319.869,55.133z M259.219,57.264c-0.642,0.367-1.461,0.145-1.828-0.496
			c-0.366-0.641-0.145-1.461,0.496-1.826l2.095-1.201l1.331,2.324L259.219,57.264z M273.43,51.221l-9.201,4.898
			c-0.024-0.102-2.764-4.873-2.855-4.957l13.192-7.895L273.43,51.221z M293.804,39.801h-12.758v-3.714
			c1.77,1.468,4.011,2.296,6.379,2.296c2.365,0,4.608-0.83,6.379-2.297V39.801z M293.804,32.586L293.804,32.586
			c-1.422,2.151-3.805,3.434-6.379,3.434c-2.576,0-4.958-1.284-6.379-3.436v-4.203c0-0.738,0.602-1.339,1.34-1.339h10.079
			c0.738,0,1.339,0.601,1.339,1.339V32.586L293.804,32.586z M310.62,56.119l-9.156-4.875c-0.013-0.008-0.028-0.014-0.042-0.021
			l-1.137-7.955l13.191,7.895C313.386,51.244,310.646,56.018,310.62,56.119z M317.459,56.768c-0.367,0.641-1.186,0.863-1.827,0.496
			l-2.095-1.199l1.331-2.324l2.095,1.201C317.604,55.307,317.825,56.127,317.459,56.768z"/>
	</g>
</g>
<g>
	<g>
		<path fill="#F8A41F" d="M291.205,49.881h-2.599v-2.598c0-0.654-0.529-1.182-1.182-1.182s-1.182,0.527-1.182,1.182v2.598h-2.599
			c-0.652,0-1.181,0.529-1.181,1.182s0.528,1.182,1.181,1.182h2.599v10.158c0,0.652,0.529,1.182,1.182,1.182
			s1.182-0.529,1.182-1.182V52.244h2.599c0.652,0,1.181-0.529,1.181-1.182S291.857,49.881,291.205,49.881z"/>
	</g>
</g>
<g>
	<g>
		<path fill="#F8A41F" d="M287.425,8.3c-11.072,0-20.081,9.009-20.081,20.082c0,4.387,1.388,8.554,4.017,12.052
			c0.231,0.309,0.587,0.473,0.944,0.473c0.248,0,0.497-0.078,0.709-0.238c0.521-0.393,0.627-1.133,0.235-1.654
			c-2.318-3.085-3.544-6.762-3.544-10.632c0-9.771,7.949-17.719,17.72-17.719s17.719,7.949,17.719,17.719
			c0,3.87-1.224,7.546-3.541,10.631c-0.393,0.521-0.287,1.263,0.234,1.653c0.522,0.393,1.263,0.287,1.654-0.234
			c2.627-3.498,4.016-7.664,4.016-12.05C307.507,17.309,298.498,8.3,287.425,8.3z"/>
	</g>
</g>
<g>
	<g>
		<path fill="#F8A41F" d="M287.425,2c-0.652,0-1.181,0.528-1.181,1.181v2.52c0,0.652,0.528,1.181,1.181,1.181
			s1.182-0.529,1.182-1.181v-2.52C288.606,2.528,288.077,2,287.425,2z"/>
	</g>
</g>
<g>
	<g>
		<path fill="#F8A41F" d="M276.479,8.318l-1.26-2.182c-0.327-0.565-1.05-0.759-1.615-0.433c-0.564,0.327-0.758,1.049-0.432,1.614
			l1.26,2.182c0.348,0.601,1.164,0.772,1.724,0.36C276.635,9.507,276.774,8.832,276.479,8.318z"/>
	</g>
</g>
<g>
	<g>
		<path fill="#F8A41F" d="M267.282,16.648l-2.183-1.259c-0.565-0.327-1.287-0.133-1.613,0.432s-0.134,1.287,0.432,1.613l2.184,1.26
			c0.603,0.348,1.394,0.086,1.672-0.55C268.013,17.601,267.796,16.945,267.282,16.648z"/>
	</g>
</g>
<g>
	<g>
		<path fill="#F8A41F" d="M263.484,28.46h-2.521c-0.652,0-1.181,0.529-1.181,1.181c0,0.653,0.528,1.182,1.181,1.182h2.521
			c0.652,0,1.182-0.529,1.182-1.182C264.666,28.989,264.138,28.46,263.484,28.46z"/>
	</g>
</g>
<g>
	<g>
		<path fill="#F8A41F" d="M267.715,41.021c-0.326-0.566-1.049-0.758-1.613-0.432l-2.184,1.26c-0.513,0.297-0.729,0.953-0.491,1.496
			c0.278,0.635,1.07,0.896,1.673,0.549l2.183-1.26C267.848,42.311,268.04,41.586,267.715,41.021z"/>
	</g>
</g>
<g>
	<g>
		<path fill="#F8A41F" d="M310.932,41.85l-2.184-1.261c-0.564-0.325-1.287-0.134-1.613,0.433c-0.325,0.564-0.133,1.287,0.433,1.613
			l2.183,1.26c0.603,0.348,1.395,0.086,1.673-0.549C311.661,42.803,311.444,42.146,310.932,41.85z"/>
	</g>
</g>
<g>
	<g>
		<path fill="#F8A41F" d="M313.886,28.46h-2.521c-0.652,0-1.182,0.529-1.182,1.181c0,0.653,0.529,1.182,1.182,1.182h2.521
			c0.652,0,1.181-0.529,1.181-1.182C315.066,28.989,314.538,28.46,313.886,28.46z"/>
	</g>
</g>
<g>
	<g>
		<path fill="#F8A41F" d="M311.363,15.821c-0.326-0.565-1.049-0.758-1.613-0.432l-2.183,1.26c-0.439,0.254-0.672,0.777-0.564,1.273
			c0.117,0.538,0.605,0.932,1.156,0.932c0.2,0,0.403-0.051,0.589-0.159l2.184-1.26C311.497,17.108,311.688,16.386,311.363,15.821z"
			/>
	</g>
</g>
<g>
	<g>
		<path fill="#F8A41F" d="M301.246,5.703c-0.565-0.326-1.288-0.132-1.614,0.433l-1.26,2.182c-0.326,0.565-0.133,1.288,0.433,1.614
			c0.558,0.322,1.292,0.125,1.613-0.433l1.26-2.182C302.005,6.752,301.811,6.03,301.246,5.703z"/>
	</g>
</g>
<g>
	<path stroke="#000000" stroke-width="2" stroke-miterlimit="10" d="M40.051,60.465c-0.48,0.359-1.15,0.75-2.01,1.17
		c-0.86,0.42-1.87,0.811-3.03,1.17c-1.161,0.359-2.451,0.66-3.87,0.9c-1.42,0.24-2.931,0.359-4.53,0.359c-3.4,0-6.45-0.59-9.15-1.77
		c-2.7-1.18-4.99-2.77-6.87-4.77c-1.881-2-3.321-4.32-4.32-6.961c-1-2.641-1.5-5.439-1.5-8.4c0-3.279,0.59-6.3,1.77-9.06
		c1.18-2.76,2.79-5.139,4.83-7.14c2.04-2,4.43-3.56,7.17-4.68c2.74-1.12,5.649-1.68,8.73-1.68c1.16,0,2.34,0.081,3.54,0.24
		c1.2,0.161,2.33,0.381,3.39,0.66c1.06,0.28,2,0.61,2.82,0.99c0.819,0.38,1.45,0.771,1.89,1.17c-0.321,0.48-0.57,0.88-0.75,1.2
		c-0.18,0.321-0.37,0.651-0.57,0.99c-0.201,0.34-0.42,0.73-0.66,1.17c-0.24,0.441-0.561,1.02-0.96,1.74
		c-0.521-0.36-1.131-0.66-1.83-0.9c-0.7-0.24-1.431-0.439-2.19-0.6c-0.76-0.16-1.53-0.28-2.31-0.36c-0.78-0.08-1.491-0.12-2.13-0.12
		c-2.32,0-4.47,0.43-6.45,1.29c-1.98,0.86-3.69,2.02-5.13,3.48c-1.44,1.46-2.571,3.15-3.39,5.07c-0.82,1.92-1.23,3.92-1.23,6
		c0,2.039,0.39,4,1.17,5.879c0.78,1.881,1.86,3.561,3.24,5.041s3.04,2.66,4.98,3.539c1.939,0.881,4.07,1.32,6.39,1.32
		c1.239,0,2.439-0.119,3.6-0.359s2.21-0.52,3.15-0.84c0.939-0.32,1.719-0.641,2.34-0.961c0.62-0.318,0.99-0.559,1.11-0.719
		L40.051,60.465z"/>
	<path stroke="#000000" stroke-width="2" stroke-miterlimit="10" d="M46.05,63.584v-43.5h6.54v18.48h21.78v-18.48h6.6
		c0,0.521,0,1.491,0,2.91c0,1.42,0,3.11,0,5.07c0,1.96,0,4.131,0,6.51c0,2.38-0.01,4.8-0.03,7.259
		c-0.021,2.461-0.03,4.881-0.03,7.26c0,2.381,0,4.551,0,6.512c0,1.959,0,3.65,0,5.068c0,1.422,0,2.391,0,2.91h-6.54V44.805H52.59
		v18.779H46.05z"/>
	<path stroke="#000000" stroke-width="2" stroke-miterlimit="10" d="M107.729,64.064c-2.32,0-4.48-0.381-6.479-1.141
		c-2.001-0.758-3.75-1.83-5.25-3.209c-1.5-1.381-2.681-3.039-3.541-4.98c-0.86-1.939-1.29-4.109-1.29-6.51v-28.14h6.6v27.96
		c0,1.4,0.249,2.689,0.75,3.869c0.5,1.182,1.2,2.221,2.1,3.121c0.9,0.9,1.95,1.6,3.15,2.1s2.521,0.75,3.96,0.75
		c1.399,0,2.709-0.25,3.93-0.75c1.22-0.5,2.28-1.199,3.181-2.1c0.899-0.9,1.609-1.939,2.13-3.121c0.52-1.18,0.78-2.469,0.78-3.869
		v-27.96h6.6v28.14c0,2.4-0.431,4.57-1.29,6.51c-0.86,1.941-2.04,3.6-3.54,4.98c-1.5,1.379-3.261,2.451-5.28,3.209
		C112.22,63.684,110.049,64.064,107.729,64.064z"/>
	<path stroke="#000000" stroke-width="2" stroke-miterlimit="10" d="M134.549,63.584v-43.5h11.88c2.28,0,4.37,0.3,6.271,0.9
		c1.899,0.6,3.54,1.491,4.92,2.67c1.38,1.181,2.449,2.621,3.21,4.32c0.759,1.701,1.14,3.65,1.14,5.85c0,1.2-0.12,2.391-0.359,3.57
		c-0.24,1.18-0.631,2.32-1.17,3.42c-0.54,1.101-1.23,2.121-2.07,3.061s-1.86,1.73-3.061,2.369c1.6,2.521,3.34,5.311,5.221,8.371
		c1.879,3.059,3.779,6.051,5.699,8.969h-7.859c-0.801-1.238-1.631-2.539-2.49-3.898c-0.86-1.359-1.721-2.711-2.58-4.051
		c-0.86-1.34-1.7-2.66-2.52-3.961c-0.82-1.299-1.59-2.51-2.311-3.629h-1.2h-6.119v15.539H134.549z M141.149,41.864h5.939
		c1.6,0,2.94-0.271,4.021-0.81c1.08-0.54,1.929-1.209,2.55-2.01c0.619-0.8,1.06-1.66,1.319-2.581c0.26-0.919,0.391-1.76,0.391-2.52
		c0-0.759-0.131-1.59-0.391-2.49s-0.71-1.74-1.35-2.52c-0.641-0.78-1.49-1.43-2.55-1.95c-1.061-0.519-2.37-0.78-3.93-0.78h-6V41.864
		z"/>
	<path stroke="#000000" stroke-width="2" stroke-miterlimit="10" d="M203.85,60.465c-0.48,0.359-1.15,0.75-2.01,1.17
		c-0.861,0.42-1.871,0.811-3.03,1.17c-1.161,0.359-2.451,0.66-3.87,0.9c-1.42,0.24-2.931,0.359-4.53,0.359
		c-3.4,0-6.449-0.59-9.149-1.77s-4.99-2.77-6.87-4.77c-1.881-2-3.32-4.32-4.32-6.961s-1.5-5.439-1.5-8.4
		c0-3.279,0.59-6.3,1.771-9.06c1.179-2.76,2.79-5.139,4.83-7.14c2.04-2,4.43-3.56,7.17-4.68c2.739-1.12,5.649-1.68,8.729-1.68
		c1.16,0,2.34,0.081,3.54,0.24c1.2,0.161,2.33,0.381,3.39,0.66c1.06,0.28,2,0.61,2.82,0.99c0.819,0.38,1.449,0.771,1.891,1.17
		c-0.321,0.48-0.57,0.88-0.75,1.2c-0.181,0.321-0.371,0.651-0.57,0.99c-0.201,0.34-0.42,0.73-0.66,1.17
		c-0.24,0.441-0.561,1.02-0.96,1.74c-0.521-0.36-1.131-0.66-1.83-0.9c-0.7-0.24-1.431-0.439-2.19-0.6
		c-0.76-0.16-1.529-0.28-2.31-0.36c-0.78-0.08-1.49-0.12-2.13-0.12c-2.32,0-4.47,0.43-6.45,1.29c-1.979,0.86-3.689,2.02-5.13,3.48
		c-1.44,1.46-2.57,3.15-3.39,5.07c-0.82,1.92-1.23,3.92-1.23,6c0,2.039,0.39,4,1.17,5.879c0.78,1.881,1.86,3.561,3.24,5.041
		s3.039,2.66,4.979,3.539c1.94,0.881,4.07,1.32,6.391,1.32c1.239,0,2.439-0.119,3.6-0.359s2.21-0.52,3.15-0.84
		c0.939-0.32,1.719-0.641,2.34-0.961c0.62-0.318,0.99-0.559,1.11-0.719L203.85,60.465z"/>
	<path stroke="#000000" stroke-width="2" stroke-miterlimit="10" d="M209.849,63.584v-43.5h6.54v18.48h21.78v-18.48h6.6
		c0,0.521,0,1.491,0,2.91c0,1.42,0,3.11,0,5.07c0,1.96,0,4.131,0,6.51c0,2.38-0.01,4.8-0.029,7.259
		c-0.021,2.461-0.03,4.881-0.03,7.26c0,2.381,0,4.551,0,6.512c0,1.959,0,3.65,0,5.068c0,1.422,0,2.391,0,2.91h-6.54V44.805h-21.78
		v18.779H209.849z"/>
</g>
</svg>
